<svg aria-hidden="true" style="position: absolute; width: 0; height: 0; overflow: hidden;" version="1.1" xmlns="http://www.w3.org/2000/svg" xmlns:xlink="http://www.w3.org/1999/xlink">
<defs>
<symbol id="icon-logoName" viewBox="0 0 186 32">
<path fill="#ffa837" style="fill: var(--color1, #ffa837)" d="M12.382 0h-2.752v7.772l-5.434-5.496-1.946 1.968 5.434 5.496h-7.685v2.783h22.013v-2.783h-7.685l5.434-5.496-1.946-1.968-5.434 5.496v-7.772z"></path>
<path fill="#314172" style="fill: var(--color2, #314172)" d="M0 15.29v16.609h2.752v-13.841l6.879 13.841h2.752l6.879-13.841v13.841h2.752v-16.609h-4.127l-6.879 13.841-6.879-13.841h-4.127z"></path>
<path fill="#314172" style="fill: var(--color2, #314172)" d="M116.524 23.459c0 1.768-0.264 3.281-0.944 4.538s-1.627 2.224-2.84 2.9c-1.205 0.668-1.977 1.002-4.19 1.002h-6.525v-16.609h5.821c2.785 0 4.941 0.707 6.467 2.122 1.526 1.407 2.212 3.422 2.212 6.047zM113.449 23.459c0-1.878-0.37-3.256-1.363-4.238-0.985-0.99-2.456-1.163-4.311-1.163h-2.994v11.072h3.543c1.040 0 1.995 0 2.825-0.498 0.845-0.507 1.413-1.412 1.654-1.91 0.438-0.904 0.647-2.022 0.647-3.263z"></path>
<path fill="#314172" style="fill: var(--color2, #314172)" d="M24.649 15.29h10.031v2.782h-7.286v4.173h6.91v2.782h-6.91v4.090h7.537v2.782h-10.282v-16.609z"></path>
<path fill="#314172" style="fill: var(--color2, #314172)" d="M70.653 31.899v-16.609h10.030v2.782h-7.286v4.173h6.91v2.782h-6.91v4.090h7.537v2.782h-10.282z"></path>
<path fill="#314172" style="fill: var(--color2, #314172)" d="M83.439 15.29h10.030v2.782h-7.286v4.173h6.909v2.782h-6.909v4.090h7.536v2.782h-10.281v-16.609z"></path>
<path fill="#314172" style="fill: var(--color2, #314172)" d="M41.812 15.29h-4.113v16.609h2.742v-13.841l6.854 13.841h4.113v-16.609h-2.742v13.84l-6.854-13.84z"></path>
<path fill="#314172" style="fill: var(--color2, #314172)" d="M67.732 27.998c0.68-1.257 0.944-2.77 0.944-4.538 0-2.625-0.685-4.64-2.211-6.047-1.526-1.415-3.682-2.122-6.467-2.122h-5.821v16.609h6.526c2.213 0 2.985-0.334 4.19-1.002 1.213-0.676 2.16-1.642 2.84-2.9zM64.238 19.221c0.993 0.982 1.363 2.36 1.363 4.238 0 1.242-0.208 2.36-0.646 3.264-0.242 0.498-0.81 1.402-1.654 1.91-0.83 0.499-1.785 0.498-2.825 0.498h-3.543v-11.073h2.994c1.854 0 3.325 0.172 4.311 1.163z"></path>
<path fill="#314172" style="fill: var(--color2, #314172)" d="M118.501 15.29h2.768v16.609h-2.768v-16.609z"></path>
<path fill="#314172" style="fill: var(--color2, #314172)" d="M140.778 15.29h2.768v16.609h-2.768v-16.609z"></path>
<path fill="#314172" style="fill: var(--color2, #314172)" d="M153.222 31.899h-2.742v-13.841h-5.484v-2.768h13.709v2.768h-5.483v13.841z"></path>
<path fill="#314172" style="fill: var(--color2, #314172)" d="M131.254 29.54c0.861 0.001 1.601 0.003 2.503-0.412 0.662-0.305 1.247-0.577 1.521-1.088v-2.395h-4.098v-2.768h6.83v6.24c-0.738 0.929-1.573 1.49-2.806 2.050-1.505 0.683-2.691 0.733-4.161 0.733-1.704 0-3.158-0.328-4.364-0.985-1.198-0.664-2.115-1.622-2.748-2.875s-0.949-2.756-0.949-4.512c0-2.642 0.697-4.673 2.091-6.093 1.402-1.428 3.512-2.199 5.993-2.142 1.608 0.037 2.708 0.221 4.047 0.996 1.371 0.794 2.143 1.695 2.678 3.069l-2.721 0.831c-0.769-1.589-2.331-2.517-4.246-2.489-2.348 0.035-3.918 1.58-4.617 3.902-0.216 0.713-0.231 1.238-0.25 1.89v0.004l-0.001 0.030c0 1.893 0.453 3.371 1.357 4.432 0.905 1.054 2.167 1.58 3.787 1.58l0.153 0z"></path>
<path fill="#314172" style="fill: var(--color2, #314172)" d="M177.917 15.29h-2.736v16.609h10.941v-2.768h-8.205v-13.841z"></path>
<path fill="#314172" style="fill: var(--color2, #314172)" d="M157.255 31.899l6.866-16.609h2.745l6.866 16.609h-2.746l-1.716-4.152h-7.552l-1.716 4.152h-2.746zM165.493 18.612l2.632 6.367h-5.263l2.631-6.367z"></path>
<path fill="#314172" style="fill: var(--color2, #314172)" d="M96.489 29.131h2.768v2.768h-2.768v-2.768z"></path>
</symbol>
<symbol id="icon-Logo" viewBox="0 0 56 32">
<path fill="#ffa837" style="fill: var(--color1, #ffa837)" d="M31.678 0h-7.039v19.861l-13.902-14.044-4.978 5.028 13.902 14.044h-19.66v7.111h56.316v-7.111h-19.66l13.902-14.044-4.978-5.028-13.902 14.044v-19.861z"></path>
</symbol>
<symbol id="icon-rowDown" viewBox="0 0 56 32">
<path d="M1.308 7.512c-0.807-0.791-1.307-1.893-1.307-3.111s0.5-2.32 1.306-3.11l0.001-0.001c0.813-0.797 1.927-1.289 3.157-1.289s2.344 0.492 3.158 1.29l-0.001-0.001 23.536 23.198c1.742 1.718 1.742 4.504 0 6.222-1.744 1.72-4.572 1.72-6.316 0l-23.532-23.198z"></path>
<path d="M48.378 1.29c0.813-0.797 1.927-1.289 3.157-1.289s2.344 0.492 3.158 1.29l-0.001-0.001c1.744 1.718 1.744 4.504 0 6.222l-23.534 23.2c-1.744 1.718-4.572 1.718-6.316 0-0.808-0.791-1.309-1.894-1.309-3.113s0.501-2.322 1.308-3.112l0.001-0.001 23.538-23.196z"></path>
</symbol>
<symbol id="icon-rowUp" viewBox="0 0 56 32">
<path fill="#fff" style="fill: var(--color3, #fff)" d="M54.692 24.486c1.744 1.72 1.744 4.506 0 6.224-1.744 1.72-4.57 1.72-6.314 0l-23.536-23.198c-0.807-0.791-1.308-1.893-1.308-3.112s0.501-2.321 1.307-3.111l0.001-0.001c0.813-0.798 1.928-1.29 3.158-1.29s2.345 0.492 3.159 1.291l-0.001-0.001 23.534 23.2z"></path>
<path fill="#fff" style="fill: var(--color3, #fff)" d="M7.622 30.71c-1.744 1.72-4.57 1.72-6.314 0-0.807-0.791-1.307-1.893-1.307-3.111s0.5-2.32 1.306-3.11l0.001-0.001 23.532-23.2c0.813-0.798 1.928-1.29 3.158-1.29s2.345 0.492 3.159 1.291l-0.001-0.001c1.742 1.72 1.742 4.506 0 6.224l-23.536 23.2z"></path>
</symbol>
</defs>
</svg>
